<svg width="114" height="30" viewBox="0 0 114 30" fill="none" xmlns="http://www.w3.org/2000/svg">
<path d="M68.9436 22.0385V11.1506H65.2734V9.18652H75.0033V11.1506H71.2949V22.0385H68.9436Z" fill="#0E0E0E"/>
<path d="M55.7969 22.0384V9.35802C56.6571 9.20547 57.8231 9.09106 59.3906 9.09106C61.111 9.09106 62.3535 9.45336 63.1755 10.1398C63.9401 10.7691 64.4371 11.7797 64.4371 12.981C64.4371 14.2013 64.0548 15.1929 63.3475 15.8794C62.3918 16.8137 60.939 17.2713 59.2759 17.2713C58.8363 17.2713 58.4539 17.2523 58.129 17.176V22.0384H55.7969ZM58.129 11.017V15.3264C58.4348 15.4217 58.798 15.4408 59.2759 15.4408C61.0346 15.4408 62.105 14.5636 62.105 13.0763C62.105 11.6462 61.111 10.9025 59.4862 10.9025C58.8363 10.9025 58.3775 10.9598 58.129 11.017Z" fill="#0E0E0E"/>
<path d="M53.3899 14.9451V21.4473C52.5679 21.7524 50.9622 22.1719 49.2609 22.1719C47.0818 22.1719 45.4187 21.6189 44.1953 20.4558C43.0484 19.3689 42.3984 17.6718 42.3984 15.7269C42.4176 11.6463 45.304 9.05298 49.5668 9.05298C51.1534 9.05298 52.3959 9.37714 52.9885 9.66316L52.4724 11.5509C51.7651 11.2268 50.9049 10.9979 49.5477 10.9979C46.795 10.9979 44.8644 12.6187 44.8644 15.6124C44.8644 18.5299 46.6612 20.2651 49.3374 20.2651C50.1976 20.2651 50.8093 20.1507 51.1152 20.0172V16.7947H48.8404V14.9451H53.3899Z" fill="#0E0E0E"/>
<path d="M32.6862 11.0172L34.9992 10.3689V12.7524H37.2357V14.5067H34.9992V18.6064C34.9992 19.7505 35.305 20.3225 36.2034 20.3225C36.624 20.3225 36.8534 20.3034 37.121 20.2272L37.1592 22.0005C36.8151 22.134 36.1843 22.2484 35.4579 22.2484C34.5786 22.2484 33.8713 21.9624 33.4317 21.4857C32.9156 20.9518 32.6862 20.0937 32.6862 18.8733V14.5067H31.3672V12.7524H32.6862V11.0172Z" fill="#0E0E0E"/>
<path d="M29.9381 16.4705V19.8075C29.9381 20.6465 29.9764 21.4664 30.0911 22.0385H27.9692L27.7972 21.0088H27.7398C27.1855 21.7334 26.2106 22.2482 24.9872 22.2482C23.1139 22.2482 22.0625 20.8944 22.0625 19.4833C22.0625 17.157 24.1461 15.9557 27.5869 15.9748V15.8222C27.5869 15.212 27.3384 14.2014 25.6945 14.2014C24.7769 14.2014 23.8211 14.4874 23.1903 14.8879L22.7315 13.3624C23.4197 12.9429 24.624 12.5425 26.0959 12.5425C29.0779 12.5425 29.9381 14.4302 29.9381 16.4705ZM27.6443 18.7778V17.5002C25.9812 17.4812 24.3946 17.8244 24.3946 19.2354C24.3946 20.1507 24.9872 20.5702 25.7327 20.5702C26.6885 20.5702 27.3575 19.96 27.5869 19.2926C27.6443 19.121 27.6443 18.9494 27.6443 18.7778Z" fill="#0E0E0E"/>
<path d="M11.7734 22.0384V8.5H14.1247V14.0107H14.1629C14.4496 13.5721 14.8511 13.2099 15.3289 12.962C15.8068 12.695 16.3612 12.5425 16.9538 12.5425C18.5404 12.5425 20.2034 13.5912 20.2034 16.5659V22.0384H17.8522V16.8137C17.8522 15.479 17.3552 14.4493 16.0553 14.4493C15.1378 14.4493 14.4879 15.0595 14.2202 15.765C14.1438 15.9747 14.1247 16.2226 14.1247 16.4705V22.0384H11.7734Z" fill="#0E0E0E"/>
<path d="M9.53869 19.8266L9.921 21.6762C9.36665 21.9432 8.14325 22.2483 6.57577 22.2483C2.48503 22.2483 0 19.6931 0 15.7651C0 11.5319 2.96292 8.97681 6.90074 8.97681C8.4491 8.97681 9.53869 9.30097 10.0166 9.54885L9.51958 11.4175C8.90788 11.1506 8.04767 10.9218 6.99631 10.9218C4.37748 10.9218 2.48503 12.5616 2.48503 15.6507C2.48503 18.4918 4.12897 20.2843 6.9772 20.2843C7.91386 20.2843 8.90788 20.0936 9.53869 19.8266Z" fill="#0E0E0E"/>
<g clip-path="url(#clip0_12013_2897)">
<path d="M108.368 26.4984L106.281 24.4118C109.537 21.1567 108.184 19.8038 107.533 19.1535L109.62 17.0669C111.482 18.929 111.486 20.8552 111.162 22.1431C110.808 23.5474 109.894 24.972 108.368 26.4984Z" fill="#646464"/>
<path d="M88 6.133L90.0866 8.21963C93.3417 4.96434 94.6949 6.31752 95.3449 6.96756L97.4315 4.88093C95.5695 3.01887 93.6433 3.01467 92.3554 3.33902C90.9511 3.69281 89.5264 4.60658 88 6.133Z" fill="#646464"/>
<path d="M109.618 17.0669L107.531 19.1535C107.968 19.5901 108.721 20.3436 108.184 21.7771C109.217 21.1112 110.207 20.3667 111.14 19.5511C110.915 18.7524 110.454 17.9032 109.618 17.0669Z" fill="#646464"/>
<path d="M97.4368 4.88108C96.6005 4.04475 95.7513 3.58388 94.9526 3.35864C94.137 4.29211 93.3925 5.28177 92.7266 6.31546C94.1601 5.77782 94.9136 6.53118 95.3502 6.96771L97.4368 4.88108Z" fill="#646464"/>
<path d="M111.142 3.35797C107.331 -0.452657 101.153 -0.452657 97.3428 3.35797C89.8552 10.8456 89.7872 20.7309 91.7778 22.7218C93.7685 24.7124 103.654 24.6444 111.142 17.1568C114.952 13.3464 114.952 7.16838 111.142 3.35797Z" fill="white"/>
<path d="M111.139 3.35781C110.93 3.14917 110.714 2.95248 110.492 2.76685C113.699 6.60026 113.503 12.317 109.901 15.919C103.103 22.7163 94.3303 23.3986 91.2812 21.9773C91.4255 22.2871 91.5914 22.538 91.7749 22.7216C93.7657 24.7122 103.651 24.6443 111.139 17.1567C114.949 13.3462 114.949 7.16822 111.139 3.35781Z" fill="#646464"/>
<path d="M110.992 13.2893C112.211 10.5687 111.705 7.25726 109.475 5.02703C107.245 2.79703 103.933 2.29147 101.213 3.51057C100.429 3.8617 100.235 4.88411 100.841 5.49122L109.011 13.6607C109.618 14.2676 110.64 14.0727 110.992 13.2893Z" fill="#32A181"/>
<path d="M110.992 13.2894C112.211 10.5689 111.705 7.25738 109.475 5.02716C109.266 4.81786 109.047 4.62382 108.82 4.44482C110.547 6.63611 110.859 9.58651 109.754 12.0517C109.403 12.8352 108.38 13.0301 107.773 12.4232L109.011 13.6609C109.618 14.2678 110.641 14.0728 110.992 13.2894Z" fill="#179071"/>
<path d="M104.07 5.95649C103.958 5.95649 103.846 5.91379 103.761 5.82838C103.59 5.65736 103.59 5.38035 103.761 5.20954L104.206 4.76482C104.376 4.59402 104.654 4.59402 104.824 4.76482C104.995 4.93585 104.995 5.21286 104.824 5.38367L104.38 5.82838C104.295 5.91379 104.182 5.95649 104.07 5.95649Z" fill="#0E0E0E"/>
<path d="M108.985 10.8695C108.873 10.8695 108.761 10.8268 108.675 10.7412C108.504 10.5704 108.504 10.2934 108.675 10.1223L109.12 9.67783C109.291 9.5068 109.568 9.5068 109.739 9.67783C109.909 9.84864 109.909 10.1256 109.739 10.2967L109.294 10.7412C109.208 10.8268 109.096 10.8695 108.985 10.8695Z" fill="#0E0E0E"/>
<path d="M107.089 8.99067C106.678 8.99067 106.277 8.82296 105.976 8.52206C105.651 8.19638 105.481 7.75431 105.511 7.30871C105.527 7.06755 105.736 6.88523 105.977 6.90139C106.218 6.91776 106.401 7.1264 106.384 7.36756C106.371 7.56094 106.448 7.75608 106.595 7.90322C106.742 8.05013 106.937 8.12712 107.131 8.11407C107.372 8.09792 107.581 8.28023 107.597 8.5214C107.613 8.76256 107.431 8.9712 107.19 8.98735C107.156 8.98957 107.122 8.99067 107.089 8.99067Z" fill="#0E0E0E"/>
<path d="M102.799 11.7044C101.07 9.9758 98.2673 9.9758 96.5387 11.7044C94.81 13.4329 94.81 16.2355 96.5387 17.9641C98.2673 19.6928 101.07 19.6928 102.799 17.9641C104.527 16.2355 104.527 13.4329 102.799 11.7044Z" fill="#32A181"/>
<path d="M100.78 13.7215C100.166 13.1068 99.1694 13.1068 98.5547 13.7215C97.9401 14.3361 97.9401 15.3326 98.5547 15.9473C99.1694 16.5617 100.166 16.5617 100.78 15.9473C101.395 15.3326 101.395 14.3361 100.78 13.7215Z" fill="white"/>
<path d="M107.53 29.3034L106.999 28.7733C106.794 28.5684 106.737 28.2527 106.871 27.9963C107.177 27.4133 107.085 26.6747 106.596 26.1853C106.106 25.6959 105.368 25.6041 104.785 25.9101C104.529 26.0446 104.213 25.9866 104.008 25.782L103.478 25.2516C103.175 24.9492 103.229 24.4412 103.592 24.2146C104.985 23.3449 106.847 23.5148 108.056 24.7246C109.266 25.9344 109.436 27.7965 108.567 29.1895C108.34 29.5523 107.832 29.6059 107.53 29.3034Z" fill="#0E0E0E"/>
<path d="M85.1965 6.97299L85.7266 7.50333C85.9315 7.70821 86.2472 7.76595 86.5038 7.63143C87.0866 7.32566 87.8252 7.41726 88.3146 7.90667C88.804 8.39608 88.8958 9.13462 88.5898 9.71762C88.4553 9.97405 88.5133 10.2898 88.7179 10.4947L89.2483 11.0248C89.5507 11.3272 90.0587 11.2739 90.2853 10.9111C91.155 9.51783 90.9851 7.65599 89.7753 6.44618C88.5655 5.23638 86.7034 5.06623 85.3104 5.93598C84.9475 6.16254 84.894 6.67053 85.1965 6.97299Z" fill="#0E0E0E"/>
</g>
<defs>
<clipPath id="clip0_12013_2897">
<rect width="29" height="29" fill="white" transform="translate(85 0.5)"/>
</clipPath>
</defs>
</svg>
