<svg width="18" height="18" viewBox="0 0 18 18" fill="none" xmlns="http://www.w3.org/2000/svg">
<path fill-rule="evenodd" clip-rule="evenodd" d="M17.3307 9.00016C17.3307 4.39779 13.5998 0.666831 8.9974 0.66683C4.39502 0.66683 0.664063 4.39779 0.664063 9.00016C0.664063 13.6025 4.39502 17.3335 8.9974 17.3335C13.5998 17.3335 17.3307 13.6025 17.3307 9.00016ZM5.66406 8.37516C5.31888 8.37516 5.03906 8.65499 5.03906 9.00016C5.03906 9.34534 5.31888 9.62516 5.66406 9.62516L11.4442 9.62516C11.435 9.63701 11.4254 9.64909 11.4155 9.66142C11.1996 9.93028 10.8785 10.2499 10.3994 10.7247L9.2241 11.8896C8.97893 12.1326 8.97717 12.5283 9.22015 12.7735C9.46314 13.0186 9.85886 13.0204 10.104 12.7774L11.305 11.5871C11.7518 11.1443 12.1245 10.775 12.3902 10.4441C12.6688 10.0971 12.8808 9.73241 12.9375 9.28808C12.9496 9.19249 12.9557 9.09633 12.9557 9.00016C12.9557 8.904 12.9496 8.80783 12.9375 8.71225C12.8808 8.26792 12.6688 7.90322 12.3902 7.5562C12.1245 7.22535 11.7518 6.85603 11.305 6.41321L10.104 5.22292C9.85886 4.97994 9.46314 4.9817 9.22015 5.22686C8.97717 5.47203 8.97893 5.86775 9.2241 6.11074L10.3994 7.27561C10.8785 7.75044 11.1996 8.07005 11.4155 8.3389C11.4254 8.35123 11.435 8.36332 11.4442 8.37516L5.66406 8.37516Z" fill="#179071"/>
</svg>
