<svg width="30" height="30" viewBox="0 0 30 30" fill="none" xmlns="http://www.w3.org/2000/svg">
<path fill-rule="evenodd" clip-rule="evenodd" d="M30 15C30 6.71573 23.2843 2.92514e-06 15 2.56302e-06C6.71573 2.2009e-06 1.01779e-06 6.71573 6.55671e-07 15C2.93554e-07 23.2843 6.71573 30 15 30C23.2843 30 30 23.2843 30 15ZM9 13.875C8.37868 13.875 7.875 14.3787 7.875 15C7.875 15.6213 8.37868 16.125 9 16.125L19.4043 16.125C19.3877 16.1463 19.3705 16.1681 19.3527 16.1903C18.964 16.6742 18.386 17.2495 17.5236 18.1042L15.4081 20.201C14.9668 20.6383 14.9636 21.3506 15.401 21.7919C15.8383 22.2332 16.5506 22.2364 16.9919 21.799L19.1537 19.6565C19.9579 18.8594 20.6287 18.1947 21.107 17.5991C21.6086 16.9745 21.9902 16.318 22.0921 15.5182C22.114 15.3462 22.125 15.1731 22.125 15C22.125 14.8269 22.114 14.6538 22.0921 14.4818C21.9902 13.682 21.6086 13.0255 21.107 12.4009C20.6287 11.8053 19.9579 11.1406 19.1537 10.3435L16.9919 8.20097C16.5506 7.76359 15.8383 7.76677 15.401 8.20806C14.9636 8.64936 14.9668 9.36166 15.4081 9.79904L17.5236 11.8958C18.386 12.7505 18.964 13.3258 19.3527 13.8097C19.3705 13.8319 19.3877 13.8537 19.4043 13.875L9 13.875Z" fill="#646464"/>
</svg>
