<svg width="17" height="18" viewBox="0 0 17 18" fill="none" xmlns="http://www.w3.org/2000/svg">
<path fill-rule="evenodd" clip-rule="evenodd" d="M16.8307 9.00016C16.8307 4.39779 13.0998 0.666831 8.4974 0.66683C3.89502 0.66683 0.164063 4.39779 0.164063 9.00016C0.164063 13.6025 3.89502 17.3335 8.4974 17.3335C13.0998 17.3335 16.8307 13.6025 16.8307 9.00016ZM5.16406 8.37516C4.81888 8.37516 4.53906 8.65499 4.53906 9.00016C4.53906 9.34534 4.81888 9.62516 5.16406 9.62516L10.9442 9.62516C10.935 9.63701 10.9254 9.64909 10.9155 9.66142C10.6996 9.93028 10.3785 10.2499 9.89941 10.7247L8.7241 11.8896C8.47893 12.1326 8.47717 12.5283 8.72015 12.7735C8.96314 13.0186 9.35886 13.0204 9.60403 12.7774L10.805 11.5871C11.2518 11.1443 11.6245 10.775 11.8902 10.4441C12.1688 10.0971 12.3808 9.73241 12.4375 9.28808C12.4496 9.19249 12.4557 9.09633 12.4557 9.00016C12.4557 8.904 12.4496 8.80783 12.4375 8.71225C12.3808 8.26792 12.1688 7.90322 11.8902 7.5562C11.6245 7.22535 11.2518 6.85603 10.805 6.41321L9.60403 5.22292C9.35886 4.97994 8.96314 4.9817 8.72015 5.22686C8.47717 5.47203 8.47893 5.86775 8.7241 6.11074L9.89941 7.27561C10.3785 7.75044 10.6996 8.07005 10.9155 8.3389C10.9254 8.35123 10.935 8.36332 10.9442 8.37516L5.16406 8.37516Z" fill="white"/>
</svg>
