<svg width="30" height="30" viewBox="0 0 30 30" fill="none" xmlns="http://www.w3.org/2000/svg">
<path fill-rule="evenodd" clip-rule="evenodd" d="M8.573 0.451366C8.06532 0.416727 7.44693 0.416737 6.70617 0.416748H6.62198C5.88122 0.416737 5.26281 0.416727 4.75512 0.451366C4.22662 0.487425 3.72741 0.565163 3.24343 0.765635C2.12039 1.23082 1.22813 2.12307 0.762949 3.24612C0.562478 3.7301 0.484739 4.22931 0.44868 4.75781C0.414041 5.26549 0.414051 5.88388 0.414063 6.62464V6.70883C0.414051 7.44959 0.414041 8.06801 0.44868 8.57569C0.484739 9.10419 0.562478 9.6034 0.762949 10.0874C1.22813 11.2104 2.12039 12.1027 3.24343 12.5679C3.72741 12.7683 4.22662 12.8461 4.75512 12.8821C5.26281 12.9168 5.8812 12.9168 6.62197 12.9167H6.70616C7.44693 12.9168 8.06532 12.9168 8.573 12.8821C9.10151 12.8461 9.60071 12.7683 10.0847 12.5679C11.2077 12.1027 12.1 11.2104 12.5652 10.0874C12.7657 9.6034 12.8434 9.10419 12.8794 8.57569C12.9141 8.06801 12.9141 7.44961 12.9141 6.70885V6.62465C12.9141 5.88389 12.9141 5.26549 12.8794 4.75781C12.8434 4.22931 12.7657 3.7301 12.5652 3.24612C12.1 2.12307 11.2077 1.23082 10.0847 0.765635C9.60071 0.565163 9.10151 0.487425 8.573 0.451366ZM4.20014 3.07533C4.32873 3.02207 4.52409 2.97294 4.9253 2.94557C5.33774 2.91743 5.87039 2.91675 6.66406 2.91675C7.45774 2.91675 7.99039 2.91743 8.40283 2.94557C8.80404 2.97294 8.9994 3.02207 9.12799 3.07533C9.63846 3.28678 10.044 3.69235 10.2555 4.20283C10.3087 4.33141 10.3579 4.52677 10.3852 4.92799C10.4134 5.34043 10.4141 5.87308 10.4141 6.66675C10.4141 7.46042 10.4134 7.99307 10.3852 8.40551C10.3579 8.80672 10.3087 9.00208 10.2555 9.13067C10.044 9.64115 9.63846 10.0467 9.12799 10.2582C8.9994 10.3114 8.80404 10.3606 8.40283 10.3879C7.99039 10.4161 7.45774 10.4167 6.66406 10.4167C5.87039 10.4167 5.33774 10.4161 4.9253 10.3879C4.52409 10.3606 4.32873 10.3114 4.20014 10.2582C3.68966 10.0467 3.28409 9.64115 3.07265 9.13067C3.01939 9.00208 2.97026 8.80672 2.94288 8.40551C2.91474 7.99307 2.91406 7.46042 2.91406 6.66675C2.91406 5.87308 2.91474 5.34043 2.94288 4.92799C2.97026 4.52677 3.01939 4.33141 3.07265 4.20283C3.28409 3.69235 3.68966 3.28678 4.20014 3.07533Z" fill="#32A181"/>
<path fill-rule="evenodd" clip-rule="evenodd" d="M25.2397 0.451366C24.732 0.416727 24.1136 0.416737 23.3728 0.416748H23.2886C22.5479 0.416737 21.9295 0.416727 21.4218 0.451366C20.8933 0.487425 20.3941 0.565163 19.9101 0.765635C18.7871 1.23082 17.8948 2.12307 17.4296 3.24612C17.2291 3.7301 17.1514 4.22931 17.1153 4.75781C17.0807 5.26549 17.0807 5.88389 17.0807 6.62465V6.70884C17.0807 7.44961 17.0807 8.068 17.1153 8.57569C17.1514 9.10419 17.2291 9.6034 17.4296 10.0874C17.8948 11.2104 18.7871 12.1027 19.9101 12.5679C20.3941 12.7683 20.8933 12.8461 21.4218 12.8821C21.9295 12.9168 22.5479 12.9168 23.2886 12.9167H23.3728C24.1136 12.9168 24.732 12.9168 25.2397 12.8821C25.7682 12.8461 26.2674 12.7683 26.7514 12.5679C27.8744 12.1027 28.7667 11.2104 29.2318 10.0874C29.4323 9.6034 29.5101 9.10419 29.5461 8.57569C29.5808 8.06801 29.5807 7.44961 29.5807 6.70885V6.62465C29.5807 5.88389 29.5808 5.26549 29.5461 4.75781C29.5101 4.22931 29.4323 3.7301 29.2318 3.24612C28.7667 2.12307 27.8744 1.23082 26.7514 0.765635C26.2674 0.565163 25.7682 0.487425 25.2397 0.451366ZM20.8668 3.07533C20.9954 3.02207 21.1908 2.97294 21.592 2.94557C22.0044 2.91743 22.5371 2.91675 23.3307 2.91675C24.1244 2.91675 24.6571 2.91743 25.0695 2.94557C25.4707 2.97294 25.6661 3.02207 25.7947 3.07533C26.3051 3.28678 26.7107 3.69235 26.9221 4.20283C26.9754 4.33141 27.0245 4.52677 27.0519 4.92799C27.0801 5.34043 27.0807 5.87308 27.0807 6.66675C27.0807 7.46042 27.0801 7.99307 27.0519 8.40551C27.0245 8.80672 26.9754 9.00208 26.9221 9.13067C26.7107 9.64115 26.3051 10.0467 25.7947 10.2582C25.6661 10.3114 25.4707 10.3606 25.0695 10.3879C24.6571 10.4161 24.1244 10.4167 23.3307 10.4167C22.5371 10.4167 22.0044 10.4161 21.592 10.3879C21.1908 10.3606 20.9954 10.3114 20.8668 10.2582C20.3563 10.0467 19.9508 9.64115 19.7393 9.13067C19.6861 9.00208 19.6369 8.80672 19.6095 8.40551C19.5814 7.99307 19.5807 7.46042 19.5807 6.66675C19.5807 5.87308 19.5814 5.34043 19.6095 4.92799C19.6369 4.52677 19.6861 4.33141 19.7393 4.20283C19.9508 3.69235 20.3563 3.28678 20.8668 3.07533Z" fill="#32A181"/>
<path fill-rule="evenodd" clip-rule="evenodd" d="M8.573 17.118C8.06532 17.0834 7.44692 17.0834 6.70616 17.0834H6.62197C5.8812 17.0834 5.26281 17.0834 4.75512 17.118C4.22662 17.1541 3.72741 17.2318 3.24343 17.4323C2.12039 17.8975 1.22813 18.7897 0.762949 19.9128C0.562478 20.3968 0.484739 20.896 0.44868 21.4245C0.414041 21.9322 0.414051 22.5505 0.414063 23.2913V23.3755C0.414051 24.1163 0.414041 24.7347 0.44868 25.2424C0.484739 25.7709 0.562478 26.2701 0.762949 26.754C1.22813 27.8771 2.12039 28.7693 3.24343 29.2345C3.72741 29.435 4.22662 29.5127 4.75512 29.5488C5.26281 29.5834 5.8812 29.5834 6.62197 29.5834H6.70616C7.44693 29.5834 8.06532 29.5834 8.573 29.5488C9.10151 29.5127 9.60071 29.435 10.0847 29.2345C11.2077 28.7693 12.1 27.8771 12.5652 26.754C12.7657 26.2701 12.8434 25.7709 12.8794 25.2424C12.9141 24.7347 12.9141 24.1163 12.9141 23.3755V23.2913C12.9141 22.5506 12.9141 21.9322 12.8794 21.4245C12.8434 20.896 12.7657 20.3968 12.5652 19.9128C12.1 18.7897 11.2077 17.8975 10.0847 17.4323C9.60071 17.2318 9.10151 17.1541 8.573 17.118ZM4.20014 19.742C4.32873 19.6887 4.52409 19.6396 4.9253 19.6122C5.33774 19.5841 5.87039 19.5834 6.66406 19.5834C7.45774 19.5834 7.99039 19.5841 8.40283 19.6122C8.80404 19.6396 8.9994 19.6887 9.12799 19.742C9.63846 19.9534 10.044 20.359 10.2555 20.8695C10.3087 20.9981 10.3579 21.1934 10.3852 21.5947C10.4134 22.0071 10.4141 22.5397 10.4141 23.3334C10.4141 24.1271 10.4134 24.6597 10.3852 25.0722C10.3579 25.4734 10.3087 25.6688 10.2555 25.7973C10.044 26.3078 9.63846 26.7134 9.12799 26.9248C8.9994 26.9781 8.80404 27.0272 8.40283 27.0546C7.99039 27.0827 7.45774 27.0834 6.66406 27.0834C5.87039 27.0834 5.33774 27.0827 4.9253 27.0546C4.52409 27.0272 4.32873 26.9781 4.20014 26.9248C3.68967 26.7134 3.28409 26.3078 3.07265 25.7973C3.01939 25.6688 2.97026 25.4734 2.94288 25.0722C2.91474 24.6597 2.91406 24.1271 2.91406 23.3334C2.91406 22.5397 2.91474 22.0071 2.94288 21.5947C2.97026 21.1934 3.01939 20.9981 3.07265 20.8695C3.28409 20.359 3.68967 19.9534 4.20014 19.742Z" fill="#32A181"/>
<path fill-rule="evenodd" clip-rule="evenodd" d="M25.2397 17.118C24.732 17.0834 24.1136 17.0834 23.3728 17.0834H23.2886C22.5479 17.0834 21.9295 17.0834 21.4218 17.118C20.8933 17.1541 20.3941 17.2318 19.9101 17.4323C18.7871 17.8975 17.8948 18.7897 17.4296 19.9128C17.2291 20.3968 17.1514 20.896 17.1153 21.4245C17.0807 21.9322 17.0807 22.5506 17.0807 23.2913V23.3755C17.0807 24.1163 17.0807 24.7347 17.1153 25.2424C17.1514 25.7709 17.2291 26.2701 17.4296 26.754C17.8948 27.8771 18.7871 28.7693 19.9101 29.2345C20.3941 29.435 20.8933 29.5127 21.4218 29.5488C21.9295 29.5834 22.5479 29.5834 23.2886 29.5834H23.3728C24.1136 29.5834 24.732 29.5834 25.2397 29.5488C25.7682 29.5127 26.2674 29.435 26.7514 29.2345C27.8744 28.7693 28.7667 27.8771 29.2318 26.754C29.4323 26.2701 29.5101 25.7709 29.5461 25.2424C29.5808 24.7347 29.5807 24.1163 29.5807 23.3755V23.2913C29.5807 22.5506 29.5808 21.9322 29.5461 21.4245C29.5101 20.896 29.4323 20.3968 29.2318 19.9128C28.7667 18.7897 27.8744 17.8975 26.7514 17.4323C26.2674 17.2318 25.7682 17.1541 25.2397 17.118ZM20.8668 19.742C20.9954 19.6887 21.1908 19.6396 21.592 19.6122C22.0044 19.5841 22.5371 19.5834 23.3307 19.5834C24.1244 19.5834 24.6571 19.5841 25.0695 19.6122C25.4707 19.6396 25.6661 19.6887 25.7947 19.742C26.3051 19.9534 26.7107 20.359 26.9221 20.8695C26.9754 20.9981 27.0245 21.1934 27.0519 21.5947C27.0801 22.0071 27.0807 22.5397 27.0807 23.3334C27.0807 24.1271 27.0801 24.6597 27.0519 25.0722C27.0245 25.4734 26.9754 25.6688 26.9221 25.7973C26.7107 26.3078 26.3051 26.7134 25.7947 26.9248C25.6661 26.9781 25.4707 27.0272 25.0695 27.0546C24.6571 27.0827 24.1244 27.0834 23.3307 27.0834C22.5371 27.0834 22.0044 27.0827 21.592 27.0546C21.1908 27.0272 20.9954 26.9781 20.8668 26.9248C20.3563 26.7134 19.9508 26.3078 19.7393 25.7973C19.6861 25.6688 19.6369 25.4734 19.6095 25.0722C19.5814 24.6597 19.5807 24.1271 19.5807 23.3334C19.5807 22.5397 19.5814 22.0071 19.6095 21.5947C19.6369 21.1934 19.6861 20.9981 19.7393 20.8695C19.9508 20.359 20.3563 19.9534 20.8668 19.742Z" fill="#32A181"/>
</svg>
