<svg width="36" height="30" viewBox="0 0 36 30" fill="none" xmlns="http://www.w3.org/2000/svg">
<path d="M23.3146 11.4558C23.8027 10.9676 23.8027 10.1761 23.3146 9.68799C22.8264 9.19983 22.035 9.19983 21.5468 9.68799L12.1187 19.1161C11.6306 19.6042 11.6306 20.3957 12.1187 20.8838C12.6069 21.372 13.3983 21.372 13.8865 20.8838L23.3146 11.4558Z" fill="#32A181"/>
<path fill-rule="evenodd" clip-rule="evenodd" d="M8.74334 0.416626C3.96199 0.416626 0.0859375 4.29268 0.0859375 9.07403C0.0859375 10.4603 0.880905 11.7236 2.13061 12.3235L2.94289 12.7134C4.86127 13.6342 4.86127 16.3657 2.94289 17.2865L2.13061 17.6764C0.880906 18.2763 0.0859375 19.5397 0.0859375 20.9259C0.0859375 25.7072 3.96199 29.5833 8.74334 29.5833H27.2619C32.0432 29.5833 35.9193 25.7072 35.9193 20.9259C35.9193 19.5397 35.1243 18.2763 33.8746 17.6764L33.0623 17.2865C31.1439 16.3657 31.1439 13.6342 33.0623 12.7134L33.8746 12.3235C35.1243 11.7236 35.9193 10.4603 35.9193 9.07403C35.9193 4.29268 32.0432 0.416626 27.2619 0.416626H8.74334ZM2.58594 9.07403C2.58594 5.67339 5.3427 2.91663 8.74334 2.91663H27.2619C30.6625 2.91663 33.4193 5.67339 33.4193 9.07403C33.4193 9.49878 33.1757 9.88589 32.7928 10.0697L31.9805 10.4596C28.1712 12.288 28.1712 17.7119 31.9805 19.5403L32.7928 19.9302C33.1757 20.114 33.4193 20.5011 33.4193 20.9259C33.4193 24.3265 30.6625 27.0833 27.2619 27.0833H8.74334C5.3427 27.0833 2.58594 24.3265 2.58594 20.9259C2.58594 20.5011 2.82952 20.114 3.21244 19.9302L4.02472 19.5403C7.834 17.7119 7.83399 12.288 4.02472 10.4596L3.21244 10.0697C2.82952 9.88589 2.58594 9.49878 2.58594 9.07403Z" fill="#32A181"/>
<path d="M11.3359 9.99996C11.3359 10.9204 12.0821 11.6666 13.0026 11.6666C13.9231 11.6666 14.6693 10.9204 14.6693 9.99996C14.6693 9.07948 13.9231 8.33329 13.0026 8.33329C12.0821 8.33329 11.3359 9.07948 11.3359 9.99996Z" fill="#32A181"/>
<path d="M21.3359 20C21.3359 20.9204 22.0821 21.6666 23.0026 21.6666C23.9231 21.6666 24.6693 20.9204 24.6693 20C24.6693 19.0795 23.9231 18.3333 23.0026 18.3333C22.0821 18.3333 21.3359 19.0795 21.3359 20Z" fill="#32A181"/>
</svg>
