<svg width="34" height="36" viewBox="0 0 34 36" fill="none" xmlns="http://www.w3.org/2000/svg">
<path d="M9.08333 14.6666C9.08333 13.9762 9.64298 13.4166 10.3333 13.4166H15.3333C16.0237 13.4166 16.5833 13.9762 16.5833 14.6666C16.5833 15.3569 16.0237 15.9166 15.3333 15.9166H10.3333C9.64298 15.9166 9.08333 15.3569 9.08333 14.6666Z" fill="#32A181"/>
<path d="M9.08333 21.3333C9.08333 20.6429 9.64298 20.0833 10.3333 20.0833H23.6667C24.357 20.0833 24.9167 20.6429 24.9167 21.3333C24.9167 22.0236 24.357 22.5833 23.6667 22.5833H10.3333C9.64298 22.5833 9.08333 22.0236 9.08333 21.3333Z" fill="#32A181"/>
<path d="M9.08333 27.9999C9.08333 27.3096 9.64298 26.7499 10.3333 26.7499H23.6667C24.357 26.7499 24.9167 27.3096 24.9167 27.9999C24.9167 28.6903 24.357 29.2499 23.6667 29.2499H10.3333C9.64298 29.2499 9.08333 28.6903 9.08333 27.9999Z" fill="#32A181"/>
<path fill-rule="evenodd" clip-rule="evenodd" d="M23.7207 0.222793C25.5117 0.363539 27.0081 0.652794 28.297 1.30272C28.6487 1.48007 28.9819 1.6827 29.2996 1.91351C30.1132 2.5046 30.8286 3.22007 31.4197 4.03364C32.3961 5.37752 32.8333 6.95148 33.0438 8.89404C33.25 10.7976 33.25 13.1969 33.25 16.2578V19.742C33.25 22.8029 33.25 25.2022 33.0438 27.1058C32.8333 29.0484 32.3961 30.6223 31.4197 31.9662C30.8286 32.7798 30.1132 33.4952 29.2996 34.0863C27.9557 35.0627 26.3818 35.4999 24.4392 35.7104C22.5357 35.9166 20.1363 35.9166 17.0755 35.9166H16.9245C13.8637 35.9166 11.4643 35.9166 9.56079 35.7104C7.61823 35.4999 6.04426 35.0627 4.70039 34.0863C3.88682 33.4952 3.17135 32.7798 2.58025 31.9662C1.60387 30.6223 1.16668 29.0484 0.956214 27.1058C0.749976 25.2022 0.749986 22.8029 0.75 19.742V16.2578C0.749986 13.1969 0.749976 10.7976 0.956214 8.89404C1.16668 6.95148 1.60387 5.37752 2.58025 4.03364C3.17135 3.22007 3.88682 2.5046 4.70039 1.91351C5.31316 1.46831 5.97832 1.13197 6.71265 0.878593C7.92721 0.459519 9.32785 0.269372 10.9747 0.176123C12.615 0.0832481 14.5874 0.0832499 16.966 0.083252H17.0508C19.7591 0.0832466 21.9449 0.0832421 23.7207 0.222793ZM23.5248 2.71511C21.8582 2.58413 19.7695 2.58325 17 2.58325C14.5808 2.58325 12.6778 2.5837 11.1161 2.67213C10.5719 2.70294 10.0798 2.74404 9.63195 2.79752C11.0182 4.16744 12.132 5.22419 13.1262 6.01995C14.4636 7.09033 15.4743 7.59527 16.4985 7.75749C17.2327 7.87377 17.9805 7.87377 18.7147 7.75749C19.7103 7.5998 20.6935 7.11816 21.976 6.10808C22.9556 5.33662 24.0515 4.30531 25.4153 2.96131C24.8726 2.85255 24.2504 2.77213 23.5248 2.71511ZM27.9181 4.001C26.2044 5.70667 24.7948 7.07043 23.5228 8.07214C22.0632 9.22161 20.686 9.97642 19.1058 10.2267C18.1125 10.384 17.1007 10.384 16.1074 10.2267C14.4817 9.96922 13.0707 9.17768 11.564 7.97178C10.2149 6.892 8.70144 5.40591 6.82801 3.53531C6.59266 3.65403 6.37499 3.78701 6.16985 3.93605C5.56852 4.37295 5.03969 4.90177 4.6028 5.50311C3.98765 6.34978 3.62909 7.43347 3.44167 9.16333C3.25172 10.9166 3.25 13.1806 3.25 16.3333V19.6666C3.25 22.8192 3.25172 25.0833 3.44167 26.8365C3.62909 28.5664 3.98765 29.6501 4.6028 30.4967C5.03969 31.0981 5.56852 31.6269 6.16985 32.0638C7.01653 32.6789 8.10022 33.0375 9.83008 33.2249C11.5833 33.4149 13.8474 33.4166 17 33.4166C20.1526 33.4166 22.4167 33.4149 24.1699 33.2249C25.8998 33.0375 26.9835 32.6789 27.8301 32.0638C28.4315 31.6269 28.9603 31.0981 29.3972 30.4967C30.0123 29.6501 30.3709 28.5664 30.5583 26.8365C30.7483 25.0833 30.75 22.8192 30.75 19.6666V16.3333C30.75 13.1806 30.7483 10.9166 30.5583 9.16333C30.3709 7.43347 30.0123 6.34978 29.3972 5.50311C28.9817 4.93127 28.4831 4.425 27.9181 4.001Z" fill="#32A181"/>
</svg>
