<svg width="34" height="36" viewBox="0 0 34 36" fill="none" xmlns="http://www.w3.org/2000/svg">
<path d="M10.3333 10.0833C9.64298 10.0833 9.08333 10.6429 9.08333 11.3333C9.08333 12.0236 9.64298 12.5833 10.3333 12.5833H15.3333C16.0237 12.5833 16.5833 12.0236 16.5833 11.3333C16.5833 10.6429 16.0237 10.0833 15.3333 10.0833H10.3333Z" fill="#32A181"/>
<path d="M10.3333 16.7499C9.64298 16.7499 9.08333 17.3096 9.08333 17.9999C9.08333 18.6903 9.64298 19.2499 10.3333 19.2499H23.6667C24.357 19.2499 24.9167 18.6903 24.9167 17.9999C24.9167 17.3096 24.357 16.7499 23.6667 16.7499H10.3333Z" fill="#32A181"/>
<path d="M10.3333 23.4166C9.64298 23.4166 9.08333 23.9762 9.08333 24.6666C9.08333 25.3569 9.64298 25.9166 10.3333 25.9166H15.3333C16.0237 25.9166 16.5833 25.3569 16.5833 24.6666C16.5833 23.9762 16.0237 23.4166 15.3333 23.4166H10.3333Z" fill="#32A181"/>
<path fill-rule="evenodd" clip-rule="evenodd" d="M22.0428 0.1322C20.6141 0.0832522 18.9519 0.0832522 17.0184 0.0832522H16.9246C13.8637 0.0832386 11.4644 0.0832277 9.56079 0.289466C7.61823 0.499929 6.04426 0.937126 4.70039 1.91351C3.88682 2.5046 3.17135 3.22007 2.58025 4.03364C1.60387 5.37752 1.16668 6.95148 0.956214 8.89404C0.749976 10.7976 0.749987 13.1969 0.75 16.2578V19.742C0.749987 22.8029 0.749976 25.2022 0.956214 27.1058C1.16668 29.0484 1.60387 30.6223 2.58025 31.9662C3.17135 32.7798 3.88682 33.4952 4.70039 34.0863C6.04426 35.0627 7.61823 35.4999 9.56079 35.7104C11.4643 35.9166 13.8636 35.9166 16.9244 35.9166H17.0755C20.1363 35.9166 22.5357 35.9166 24.4392 35.7104C26.3818 35.4999 27.9557 35.0627 29.2996 34.0863C30.1132 33.4952 30.8286 32.7798 31.4197 31.9662C32.3961 30.6223 32.8333 29.0484 33.0438 27.1058C33.25 25.2023 33.25 22.803 33.25 19.7422V16.3149C33.25 14.3814 33.25 12.7191 33.201 11.2905C33.0941 8.16804 32.7562 5.87308 31.4197 4.03364C30.8286 3.22007 30.1132 2.5046 29.2996 1.91351C27.4602 0.577079 25.1652 0.239177 22.0428 0.1322ZM6.16986 3.93605C7.01653 3.3209 8.10022 2.96234 9.83007 2.77492C11.5833 2.58497 13.8474 2.58325 17 2.58325C18.4139 2.58325 19.653 2.58333 20.753 2.60128C20.7603 3.39236 20.7849 3.97474 20.868 4.49908C21.5175 8.59972 24.7335 11.8158 28.8342 12.4653C29.3585 12.5483 29.9409 12.5729 30.732 12.5802C30.7499 13.6803 30.75 14.9193 30.75 16.3333V19.6666C30.75 22.8192 30.7483 25.0833 30.5583 26.8365C30.3709 28.5664 30.0123 29.6501 29.3972 30.4967C28.9603 31.0981 28.4315 31.6269 27.8301 32.0638C26.9835 32.6789 25.8998 33.0375 24.1699 33.2249C22.4167 33.4149 20.1526 33.4166 17 33.4166C13.8474 33.4166 11.5833 33.4149 9.83007 33.2249C8.10022 33.0375 7.01653 32.6789 6.16986 32.0638C5.56852 31.6269 5.03969 31.0981 4.6028 30.4967C3.98765 29.6501 3.62909 28.5664 3.44167 26.8365C3.25172 25.0833 3.25 22.8192 3.25 19.6666V16.3333C3.25 13.1806 3.25172 10.9166 3.44167 9.16333C3.62909 7.43348 3.98765 6.34978 4.6028 5.50311C5.03969 4.90177 5.56852 4.37295 6.16986 3.93605ZM23.3372 4.108C23.2831 3.76627 23.2624 3.37056 23.2546 2.69566C25.5219 2.85194 26.8311 3.21017 27.8301 3.93605C28.4315 4.37295 28.9603 4.90177 29.3972 5.50311C30.1231 6.5022 30.4813 7.81138 30.6376 10.0786C29.9627 10.0708 29.567 10.0502 29.2253 9.99604C26.1943 9.516 23.8173 7.1389 23.3372 4.108Z" fill="#32A181"/>
</svg>
