<svg width="36" height="31" viewBox="0 0 36 31" fill="none" xmlns="http://www.w3.org/2000/svg">
<path fill-rule="evenodd" clip-rule="evenodd" d="M11.7192 1.95932L15.4991 0.609215C16.4488 0.269155 17.1997 0.000243579 17.9984 0.000244141C18.7971 0.000244141 19.5481 0.269157 20.4977 0.609221L24.2777 1.95932C27.8569 3.23761 30.67 4.24226 32.5786 5.22956C33.0398 5.46812 33.4845 5.72371 33.8922 6.00363C34.3997 6.35214 34.8499 6.73839 35.2028 7.17647C35.7003 7.794 36.0048 8.51452 36.0048 9.37763C36.0048 9.44408 36.0029 9.50972 35.9993 9.57456C35.9489 10.4921 35.5465 11.2438 34.9368 11.8808C34.727 12.101 34.4937 12.3064 34.2437 12.4983C33.4073 13.1405 32.2746 13.7214 30.915 14.3031L30.9151 17.9808C30.9155 20.8246 30.9158 22.56 30.446 24.0058C29.498 26.9233 27.2106 29.2107 24.2931 30.1587C22.8472 30.6285 21.1119 30.6282 18.2681 30.6278H17.7286C14.8848 30.6282 13.1495 30.6285 11.7036 30.1587C8.78609 29.2107 6.4987 26.9233 5.55074 24.0058C5.08095 22.5599 5.08122 20.8246 5.08167 17.9808L5.0817 14.301C4.46815 14.0384 3.91291 13.7814 3.41838 13.5256C3.13143 13.3772 2.85085 13.2221 2.58159 13.0588V21.0442C2.58159 21.7346 2.02195 22.2942 1.33159 22.2942C0.641239 22.2942 -0.0078125 21.7541 -0.0078125 21.0637V9.37754C-0.0078125 7.41039 1.57356 6.18381 3.41828 5.22956C5.32691 4.24226 8.13995 3.23761 11.7192 1.95932ZM2.95611 10.2432C3.01871 10.3035 3.0894 10.3661 3.16916 10.4311C3.47902 10.6838 3.92581 10.9734 4.56692 11.305C6.30702 12.2051 8.95872 13.1552 12.6643 14.4786L16.1766 15.7331C17.3683 16.1587 17.6876 16.2548 17.9984 16.2548C18.3093 16.2548 18.6285 16.1587 19.8203 15.7331L23.3326 14.4786C27.0382 13.1552 29.6899 12.2051 31.43 11.305C33.2525 10.3623 33.5047 9.75945 33.5047 9.37754C33.5047 9.20821 33.4551 8.99545 33.241 8.72888C33.0628 8.50697 32.7706 8.24777 32.2982 7.9453C32.0582 7.79167 31.7717 7.62689 31.4301 7.45016C29.69 6.55002 27.0383 5.59996 23.3327 4.27654L19.8204 3.02212C18.6286 2.59649 18.3094 2.50033 17.9985 2.50033C17.6877 2.50033 17.3684 2.59649 16.1767 3.02212L12.6644 4.27654C8.95882 5.59996 6.30712 6.55002 4.56702 7.45016C2.74452 8.39291 2.49229 8.99573 2.49229 9.37763L2.49229 9.37993L2.49531 9.44892C2.51277 9.65235 2.61226 9.91223 2.95611 10.2432ZM7.5817 17.7111V15.2947C8.81542 15.7588 10.1981 16.2526 11.7192 16.7958L15.4992 18.146C16.4489 18.486 17.1998 18.7549 17.9985 18.7549C18.7972 18.7549 19.5482 18.486 20.4978 18.146L24.3305 16.777C25.8375 16.2388 27.2027 15.7513 28.415 15.2959V17.7111C28.415 20.9105 28.3996 22.2138 28.0683 23.2333C27.3677 25.3897 25.677 27.0804 23.5206 27.7811C22.5011 28.1123 21.1978 28.1277 17.9984 28.1277C14.7989 28.1277 13.4957 28.1123 12.4762 27.7811C10.3197 27.0804 8.62905 25.3897 7.92838 23.2333C7.59712 22.2138 7.5817 20.9105 7.5817 17.7111Z" fill="#32A181"/>
</svg>
