<svg width="34" height="31" viewBox="0 0 34 31" fill="none" xmlns="http://www.w3.org/2000/svg">
<path fill-rule="evenodd" clip-rule="evenodd" d="M17 30.4167C14.5622 30.4167 12.3818 29.3149 10.9295 27.582C10.0123 29.2705 8.22334 30.4167 6.16667 30.4167C3.17512 30.4167 0.75 27.9916 0.75 25.0001V11.6667C0.75 8.67521 3.17512 6.25008 6.16667 6.25008C8.2372 6.25008 10.0364 7.41182 10.948 9.11903C11.0969 8.8741 11.2573 8.61342 11.4302 8.33254L15.2278 2.16154C15.895 1.07725 17.0771 0.416748 18.3502 0.416748C20.5972 0.416748 22.3155 2.41964 21.9739 4.64052L21.5688 7.27349C21.2471 9.3644 22.8649 11.2501 24.9804 11.2501H26.13C31.2876 11.2501 34.642 16.6778 32.3355 21.2908L30.4213 25.1192C28.798 28.3659 25.4796 30.4167 21.8497 30.4167H17ZM17.3569 3.47179C17.5692 3.12686 17.9452 2.91675 18.3502 2.91675C19.065 2.91675 19.6116 3.55389 19.5029 4.26038L19.0979 6.89334C18.5432 10.4987 21.3327 13.7501 24.9804 13.7501H26.13C29.4291 13.7501 31.5748 17.222 30.0994 20.1728L28.1852 24.0012C26.9854 26.4009 24.5327 27.9167 21.8497 27.9167H17C14.0085 27.9167 11.5833 25.4916 11.5833 22.5001V16.7769C11.5833 14.8176 11.5905 14.0295 11.7608 13.2832C11.8149 13.046 11.8812 12.8117 11.9595 12.5812C12.2056 11.8564 12.6125 11.1814 13.6394 9.51282L17.3569 3.47179ZM6.16667 8.75008C7.7775 8.75008 9.08333 10.0559 9.08333 11.6667V25.0001C9.08333 26.6109 7.7775 27.9167 6.16667 27.9167C4.55584 27.9167 3.25 26.6109 3.25 25.0001V11.6667C3.25 10.0559 4.55584 8.75008 6.16667 8.75008Z" fill="#32A181"/>
</svg>
