<svg width="36" height="35" viewBox="0 0 36 35" fill="none" xmlns="http://www.w3.org/2000/svg">
<path fill-rule="evenodd" clip-rule="evenodd" d="M25.8213 8.34212C24.5813 7.07756 23.1676 6.66628 21.835 6.76383C20.565 6.85681 19.4499 7.40275 18.6669 7.89944C18.2876 8.14007 17.7176 8.14007 17.3383 7.89944C16.5553 7.40276 15.4402 6.85682 14.1702 6.76384C12.8376 6.66629 11.4239 7.07757 10.1839 8.34212C8.72613 9.82872 8.27747 11.6671 8.45688 13.4805C8.6325 15.2556 9.40449 17.0223 10.4002 18.5553C11.4011 20.0964 12.6793 21.4811 13.9709 22.4927C15.2082 23.4618 16.6636 24.25 18.0026 24.25C19.3416 24.25 20.7971 23.4618 22.0343 22.4927C23.3259 21.4811 24.6042 20.0964 25.605 18.5553C26.6007 17.0222 27.3727 15.2556 27.5483 13.4805C27.7277 11.6671 27.2791 9.82871 25.8213 8.34212ZM20.0061 10.0105C20.6178 9.62248 21.3263 9.30776 22.0175 9.25716C22.6461 9.21114 23.3312 9.37339 24.0363 10.0925C24.8873 10.9603 25.1804 12.022 25.0605 13.2343C24.9367 14.485 24.3683 15.8697 23.5084 17.1936C22.6536 18.5097 21.5611 19.6878 20.4927 20.5246C19.37 21.404 18.4762 21.75 18.0026 21.75C17.5291 21.75 16.6353 21.404 15.5125 20.5246C14.4441 19.6878 13.3516 18.5097 12.4968 17.1936C11.6369 15.8697 11.0685 14.485 10.9447 13.2343C10.8248 12.022 11.1179 10.9603 11.9689 10.0925C12.674 9.3734 13.3591 9.21115 13.9877 9.25717C14.6789 9.30777 15.3874 9.62249 15.9991 10.0105C17.1959 10.7697 18.8093 10.7697 20.0061 10.0105Z" fill="#32A181"/>
<path fill-rule="evenodd" clip-rule="evenodd" d="M26.911 0.201061C25.4705 0.0833604 23.6781 0.0833665 21.3919 0.0833741H14.6133C12.3271 0.0833665 10.5347 0.0833604 9.09416 0.201061C7.62726 0.320911 6.41541 0.569005 5.31853 1.1279C3.51531 2.04668 2.04925 3.51275 1.13046 5.31597C0.571569 6.41285 0.323475 7.6247 0.203624 9.0916C0.0859239 10.5322 0.08593 12.3246 0.0859376 14.6108V21.7139C0.0859376 25.876 3.45996 29.25 7.62203 29.25H8.62496C9.03912 29.25 9.32233 29.6683 9.16851 30.0529C8.02408 32.914 11.3191 35.5006 13.8266 33.7095L18.1778 30.6015L18.2597 30.5432C19.4412 29.7106 20.8491 29.2594 22.2945 29.2502L22.3949 29.25L23.5544 29.2501C26.1355 29.2504 27.7099 29.2507 29.0324 28.8629C32.1644 27.9445 34.6137 25.4952 35.5321 22.3632C35.9199 21.0406 35.9197 19.4663 35.9193 16.8853L35.9193 14.6107C35.9193 12.3246 35.9193 10.5322 35.8016 9.0916C35.6817 7.6247 35.4336 6.41285 34.8748 5.31597C33.956 3.51275 32.4899 2.04668 30.6867 1.1279C29.5898 0.569005 28.3779 0.320911 26.911 0.201061ZM6.45351 3.35541C7.13922 3.00602 7.98544 2.79998 9.29774 2.69276C10.6246 2.58435 12.3151 2.58337 14.6693 2.58337H21.3359C23.6901 2.58337 25.3806 2.58435 26.7075 2.69276C28.0198 2.79998 28.866 3.00602 29.5517 3.35541C30.8845 4.03451 31.9681 5.11813 32.6472 6.45094C32.9966 7.13666 33.2027 7.98288 33.3099 9.29518C33.4183 10.6221 33.4193 12.3125 33.4193 14.6667V16.6404C33.4193 19.5436 33.4065 20.7272 33.1331 21.6597C32.4543 23.9747 30.644 25.7851 28.329 26.4639C27.3964 26.7373 26.2128 26.75 23.3096 26.75H22.3949L22.2785 26.7502C20.323 26.7628 18.4182 27.3732 16.8197 28.4996L16.7248 28.5671L12.3735 31.6752C11.8978 32.015 11.2726 31.5242 11.4897 30.9814C12.3004 28.9547 10.8078 26.75 8.62496 26.75H7.62203C4.84067 26.75 2.58594 24.4953 2.58594 21.7139V14.6667C2.58594 12.3125 2.58691 10.6221 2.69532 9.29518C2.80254 7.98288 3.00859 7.13666 3.35798 6.45094C4.03708 5.11813 5.12069 4.03452 6.45351 3.35541Z" fill="#32A181"/>
</svg>
