<svg width="34" height="34" viewBox="0 0 34 34" fill="none" xmlns="http://www.w3.org/2000/svg">
<path d="M20.75 2C20.75 1.30964 21.3096 0.75 22 0.75L23.6667 0.75C28.9594 0.75 33.25 5.04061 33.25 10.3333V12C33.25 12.6904 32.6904 13.25 32 13.25C31.3096 13.25 30.75 12.6904 30.75 12V10.3333C30.75 6.42132 27.5787 3.25 23.6667 3.25H22C21.3096 3.25 20.75 2.69036 20.75 2Z" fill="#32A181"/>
<path d="M0.75 10.3333C0.75 5.04061 5.04061 0.75 10.3333 0.75H12C12.6904 0.75 13.25 1.30964 13.25 2C13.25 2.69036 12.6904 3.25 12 3.25H10.3333C6.42132 3.25 3.25 6.42132 3.25 10.3333V12C3.25 12.6904 2.69036 13.25 2 13.25C1.30964 13.25 0.75 12.6904 0.75 12V10.3333Z" fill="#32A181"/>
<path fill-rule="evenodd" clip-rule="evenodd" d="M10.2588 5.74999C10.2835 5.75 10.3084 5.75 10.3333 5.75C10.3583 5.75 10.3831 5.75 10.4079 5.74999C11.1293 5.74991 11.7907 5.74983 12.3287 5.82217C12.9211 5.90182 13.5474 6.08923 14.0624 6.60427C14.5774 7.11931 14.7648 7.74552 14.8445 8.33799C14.9168 8.87601 14.9168 9.5374 14.9167 10.2588C14.9167 10.2835 14.9167 10.3084 14.9167 10.3333C14.9167 10.3583 14.9167 10.3831 14.9167 10.4079C14.9168 11.1293 14.9168 11.7907 14.8445 12.3287C14.7648 12.9211 14.5774 13.5474 14.0624 14.0624C13.5474 14.5774 12.9211 14.7648 12.3287 14.8445C11.7907 14.9168 11.1293 14.9168 10.4079 14.9167C10.3831 14.9167 10.3583 14.9167 10.3333 14.9167C10.3084 14.9167 10.2835 14.9167 10.2588 14.9167C9.5374 14.9168 8.87601 14.9168 8.33799 14.8445C7.74552 14.7648 7.11931 14.5774 6.60427 14.0624C6.08923 13.5474 5.90182 12.9211 5.82217 12.3287C5.74983 11.7907 5.74991 11.1293 5.74999 10.4079C5.75 10.3831 5.75 10.3583 5.75 10.3333C5.75 10.3084 5.75 10.2835 5.74999 10.2588C5.74991 9.53739 5.74983 8.87601 5.82217 8.33799C5.90182 7.74552 6.08923 7.11931 6.60427 6.60427C7.11931 6.08923 7.74552 5.90182 8.33799 5.82217C8.87601 5.74983 9.53739 5.74991 10.2588 5.74999ZM8.37225 8.37178C8.3722 8.37185 8.37249 8.37147 8.37225 8.37178V8.37178ZM8.37612 8.36977L8.37225 8.37178L8.36977 8.37612C8.36809 8.37934 8.36539 8.38487 8.36193 8.39327C8.347 8.42957 8.32151 8.51018 8.29987 8.67111C8.25266 9.02231 8.25 9.51232 8.25 10.3333C8.25 11.1543 8.25266 11.6444 8.29987 11.9956C8.32151 12.1565 8.347 12.2371 8.36193 12.2734C8.36539 12.2818 8.36809 12.2873 8.36977 12.2905L8.37206 12.2946L8.37612 12.2969C8.37934 12.2986 8.38487 12.3013 8.39327 12.3047C8.42957 12.3197 8.51018 12.3452 8.67111 12.3668C9.02231 12.414 9.51232 12.4167 10.3333 12.4167C11.1543 12.4167 11.6444 12.414 11.9956 12.3668C12.1565 12.3452 12.2371 12.3197 12.2734 12.3047C12.2818 12.3013 12.2873 12.2986 12.2905 12.2969L12.2946 12.2946L12.2969 12.2905C12.2986 12.2873 12.3013 12.2818 12.3047 12.2734C12.3197 12.2371 12.3452 12.1565 12.3668 11.9956C12.414 11.6444 12.4167 11.1543 12.4167 10.3333C12.4167 9.51232 12.414 9.02231 12.3668 8.67111C12.3452 8.51018 12.3197 8.42957 12.3047 8.39327C12.3013 8.38487 12.2986 8.37934 12.2969 8.37612L12.2946 8.37206L12.2905 8.36977C12.2873 8.36809 12.2818 8.36539 12.2734 8.36193C12.2371 8.347 12.1565 8.32151 11.9956 8.29987C11.6444 8.25266 11.1543 8.25 10.3333 8.25C9.51232 8.25 9.02231 8.25266 8.67111 8.29987C8.51018 8.32151 8.42957 8.347 8.39327 8.36193C8.38487 8.36539 8.37934 8.36809 8.37612 8.36977ZM8.37206 12.2946C8.37139 12.2939 8.37161 12.2941 8.37206 12.2946V12.2946ZM12.2946 12.2946C12.2945 12.2947 12.2949 12.2944 12.2946 12.2946V12.2946Z" fill="#32A181"/>
<path fill-rule="evenodd" clip-rule="evenodd" d="M23.5921 5.74999H23.7412C24.4626 5.74991 25.124 5.74983 25.662 5.82217C26.2545 5.90182 26.8807 6.08923 27.3957 6.60427C27.9108 7.11931 28.0982 7.74552 28.1778 8.33799C28.2502 8.87601 28.2501 9.5374 28.25 10.2588V10.4079C28.2501 11.1293 28.2502 11.7907 28.1778 12.3287C28.0982 12.9211 27.9108 13.5474 27.3957 14.0624C26.8807 14.5774 26.2545 14.7648 25.662 14.8445C25.124 14.9168 24.4626 14.9168 23.7412 14.9167H23.5921C22.8707 14.9168 22.2093 14.9168 21.6713 14.8445C21.0789 14.7648 20.4526 14.5774 19.9376 14.0624C19.4226 13.5474 19.2352 12.9211 19.1555 12.3287C19.0832 11.7907 19.0832 11.1293 19.0833 10.4079C19.0833 10.3831 19.0833 10.3583 19.0833 10.3333C19.0833 10.3084 19.0833 10.2835 19.0833 10.2588C19.0832 9.5374 19.0832 8.87601 19.1555 8.33799C19.2352 7.74552 19.4226 7.11931 19.9376 6.60427C20.4526 6.08923 21.0789 5.90182 21.6713 5.82217C22.2093 5.74983 22.8707 5.74991 23.5921 5.74999ZM21.7055 8.37195C21.706 8.3715 21.7061 8.37128 21.7055 8.37195C21.7047 8.37271 21.705 8.37253 21.7055 8.37195ZM21.7095 8.36977L21.7055 8.37195L21.7031 8.37612C21.7014 8.37934 21.6987 8.38487 21.6953 8.39327C21.6803 8.42957 21.6548 8.51018 21.6332 8.67111C21.586 9.02231 21.5833 9.51232 21.5833 10.3333C21.5833 11.1543 21.586 11.6444 21.6332 11.9956C21.6548 12.1565 21.6803 12.2371 21.6953 12.2734C21.6987 12.2818 21.7014 12.2873 21.7031 12.2905L21.7054 12.2946L21.7095 12.2969C21.7127 12.2986 21.7182 12.3013 21.7266 12.3047C21.7629 12.3197 21.8435 12.3452 22.0044 12.3668C22.3556 12.414 22.8457 12.4167 23.6667 12.4167C24.4877 12.4167 24.9777 12.414 25.3289 12.3668C25.4898 12.3452 25.5704 12.3197 25.6067 12.3047C25.6151 12.3013 25.6207 12.2986 25.6239 12.2969L25.6279 12.2946L25.6302 12.2905C25.6319 12.2873 25.6346 12.2818 25.6381 12.2734C25.653 12.2371 25.6785 12.1565 25.7001 11.9956C25.7473 11.6444 25.75 11.1543 25.75 10.3333C25.75 9.51232 25.7473 9.02231 25.7001 8.67111C25.6785 8.51018 25.653 8.42957 25.6381 8.39327C25.6346 8.38487 25.6319 8.37934 25.6302 8.37612L25.6279 8.37206L25.6239 8.36977C25.6207 8.36809 25.6151 8.36539 25.6067 8.36193C25.5704 8.347 25.4898 8.32151 25.3289 8.29987C24.9777 8.25266 24.4877 8.25 23.6667 8.25C22.8457 8.25 22.3556 8.25266 22.0044 8.29987C21.8435 8.32151 21.7629 8.347 21.7266 8.36193C21.7222 8.36374 21.7186 8.36534 21.7157 8.36669C21.7131 8.36793 21.711 8.36897 21.7095 8.36977Z" fill="#32A181"/>
<path fill-rule="evenodd" clip-rule="evenodd" d="M23.5921 19.0833H23.7412C24.4626 19.0832 25.124 19.0832 25.662 19.1555C26.2545 19.2352 26.8807 19.4226 27.3957 19.9376C27.9108 20.4526 28.0982 21.0789 28.1778 21.6713C28.2502 22.2093 28.2501 22.8707 28.25 23.5921V23.7412C28.2501 24.4626 28.2502 25.124 28.1778 25.662C28.0982 26.2545 27.9108 26.8807 27.3957 27.3957C26.8807 27.9108 26.2545 28.0982 25.662 28.1778C25.124 28.2502 24.4626 28.2501 23.7412 28.25H23.5921C22.8707 28.2501 22.2093 28.2502 21.6713 28.1778C21.0789 28.0982 20.4526 27.9108 19.9376 27.3957C19.4226 26.8807 19.2352 26.2545 19.1555 25.662C19.0832 25.124 19.0832 24.4626 19.0833 23.7412V23.5921C19.0832 22.8707 19.0832 22.2093 19.1555 21.6713C19.2352 21.0789 19.4226 20.4526 19.9376 19.9376C20.4526 19.4226 21.0789 19.2352 21.6713 19.1555C22.2093 19.0832 22.8707 19.0832 23.5921 19.0833ZM21.7095 21.7031L21.7054 21.7054L21.7031 21.7095C21.7014 21.7127 21.6987 21.7182 21.6953 21.7266C21.6803 21.7629 21.6548 21.8435 21.6332 22.0044C21.586 22.3556 21.5833 22.8457 21.5833 23.6667C21.5833 24.4877 21.586 24.9777 21.6332 25.3289C21.6548 25.4898 21.6803 25.5704 21.6953 25.6067C21.6987 25.6151 21.7014 25.6207 21.7031 25.6239L21.7054 25.6279L21.7095 25.6302C21.7127 25.6319 21.7182 25.6346 21.7266 25.6381C21.7629 25.653 21.8435 25.6785 22.0044 25.7001C22.3556 25.7473 22.8457 25.75 23.6667 25.75C24.4877 25.75 24.9777 25.7473 25.3289 25.7001C25.4898 25.6785 25.5704 25.653 25.6067 25.6381C25.6084 25.6374 25.61 25.6367 25.6114 25.6361C25.6172 25.6336 25.6213 25.6316 25.6239 25.6302L25.6279 25.6279L25.6302 25.6239C25.6319 25.6207 25.6346 25.6151 25.6381 25.6067C25.653 25.5704 25.6785 25.4898 25.7001 25.3289C25.7473 24.9777 25.75 24.4877 25.75 23.6667C25.75 22.8457 25.7473 22.3556 25.7001 22.0044C25.6785 21.8435 25.653 21.7629 25.6381 21.7266C25.6346 21.7182 25.6319 21.7127 25.6302 21.7095L25.6279 21.7054L25.6239 21.7031C25.6207 21.7014 25.6151 21.6987 25.6067 21.6953C25.5704 21.6803 25.4898 21.6548 25.3289 21.6332C24.9777 21.586 24.4877 21.5833 23.6667 21.5833C22.8457 21.5833 22.3556 21.586 22.0044 21.6332C21.8435 21.6548 21.7629 21.6803 21.7266 21.6953C21.7182 21.6987 21.7127 21.7014 21.7095 21.7031ZM21.7054 25.6279C21.7047 25.6273 21.7049 25.6274 21.7054 25.6279C21.706 25.6284 21.7062 25.6287 21.7054 25.6279Z" fill="#32A181"/>
<path d="M2 20.75C2.69036 20.75 3.25 21.3096 3.25 22V23.6667C3.25 27.5787 6.42132 30.75 10.3333 30.75H12C12.6904 30.75 13.25 31.3096 13.25 32C13.25 32.6904 12.6904 33.25 12 33.25H10.3333C5.04061 33.25 0.75 28.9594 0.75 23.6667L0.75 22C0.75 21.3096 1.30964 20.75 2 20.75Z" fill="#32A181"/>
<path d="M32 20.75C32.6904 20.75 33.25 21.3096 33.25 22V23.6667C33.25 28.9594 28.9594 33.25 23.6667 33.25H22C21.3096 33.25 20.75 32.6904 20.75 32C20.75 31.3096 21.3096 30.75 22 30.75H23.6667C27.5787 30.75 30.75 27.5787 30.75 23.6667V22C30.75 21.3096 31.3096 20.75 32 20.75Z" fill="#32A181"/>
</svg>
