<svg width="38" height="38" viewBox="0 0 38 38" fill="none" xmlns="http://www.w3.org/2000/svg">
<path d="M13.5611 8.00395C14.243 7.89595 14.7082 7.25565 14.6002 6.5738C14.4922 5.89194 13.8519 5.42673 13.17 5.53473C9.06941 6.18421 5.85334 9.40027 5.20387 13.5009C5.09587 14.1828 5.56108 14.8231 6.24293 14.9311C6.92479 15.0391 7.56509 14.5739 7.67309 13.892C8.15314 10.8611 10.5302 8.484 13.5611 8.00395Z" fill="#32A181"/>
<path fill-rule="evenodd" clip-rule="evenodd" d="M16.3359 0.416748C7.36131 0.416748 0.0859375 7.69212 0.0859375 16.6667C0.0859375 25.6414 7.36131 32.9167 16.3359 32.9167C25.3106 32.9167 32.5859 25.6414 32.5859 16.6667C32.5859 7.69212 25.3106 0.416748 16.3359 0.416748ZM2.58594 16.6667C2.58594 9.07283 8.74202 2.91675 16.3359 2.91675C23.9299 2.91675 30.0859 9.07283 30.0859 16.6667C30.0859 24.2607 23.9299 30.4167 16.3359 30.4167C8.74202 30.4167 2.58594 24.2607 2.58594 16.6667Z" fill="#32A181"/>
<path d="M30.5533 29.1164C30.0651 28.6282 29.2737 28.6282 28.7855 29.1163C28.2973 29.6045 28.2973 30.396 28.7855 30.8841L35.452 37.5507C35.9401 38.0388 36.7316 38.0389 37.2197 37.5507C37.7079 37.0625 37.7079 36.2711 37.2198 35.7829L30.5533 29.1164Z" fill="#32A181"/>
</svg>
