<svg width="38" height="37" viewBox="0 0 38 37" fill="none" xmlns="http://www.w3.org/2000/svg">
<path d="M23.5201 10.7424C23.2986 10.0885 22.589 9.73802 21.9352 9.95951C21.2813 10.181 20.9308 10.8906 21.1523 11.5445C21.8708 13.6656 23.9086 15.0561 26.157 15.0561C26.8473 15.0561 27.407 14.4965 27.407 13.8061C27.407 13.1158 26.8473 12.5561 26.157 12.5561C24.9245 12.5561 23.8773 11.7968 23.5201 10.7424Z" fill="#32A181"/>
<path fill-rule="evenodd" clip-rule="evenodd" d="M25.9435 5.12603C23.7589 -1.59751 14.2469 -1.59751 12.0623 5.12603C11.42 7.10283 9.57782 8.44122 7.49929 8.44122C0.42974 8.44122 -2.50964 17.4877 3.20975 21.6431C4.89132 22.8648 5.59495 25.0304 4.95265 27.0072C2.76804 33.7307 10.4634 39.3217 16.1828 35.1663C17.8644 33.9446 20.1414 33.9446 21.823 35.1663C27.5423 39.3217 35.2377 33.7307 33.0531 27.0072C32.4108 25.0304 33.1144 22.8648 34.796 21.6431C40.5154 17.4877 37.576 8.44122 30.5065 8.44122C28.4279 8.44122 26.5858 7.10283 25.9435 5.12603ZM14.4399 5.89857C15.8761 1.47831 22.1296 1.47831 23.5659 5.89857C24.5428 8.90543 27.3449 10.9412 30.5065 10.9412C35.1542 10.9412 37.0866 16.8886 33.3265 19.6205C30.7688 21.4789 29.6985 24.7728 30.6755 27.7797C32.1117 32.2 27.0525 35.8757 23.2924 33.1438C20.7346 31.2855 17.2711 31.2855 14.7133 33.1438C10.9532 35.8757 5.89406 32.2 7.33029 27.7797C8.30728 24.7728 7.237 21.4789 4.67921 19.6205C0.919113 16.8886 2.85155 10.9412 7.49929 10.9412C10.6609 10.9412 13.4629 8.90543 14.4399 5.89857Z" fill="#32A181"/>
</svg>
