<svg width="38" height="37" viewBox="0 0 38 37" fill="none" xmlns="http://www.w3.org/2000/svg">
<path fill-rule="evenodd" clip-rule="evenodd" d="M25.9435 5.12591C23.7589 -1.59763 14.2469 -1.59763 12.0623 5.12591C11.42 7.10271 9.57782 8.4411 7.49929 8.4411C0.42974 8.4411 -2.50964 17.4876 3.20975 21.6429C4.89132 22.8647 5.59495 25.0302 4.95265 27.007C2.76804 33.7306 10.4634 39.3216 16.1828 35.1662C17.8644 33.9445 20.1414 33.9445 21.823 35.1662C27.5423 39.3216 35.2377 33.7306 33.0531 27.007C32.4108 25.0302 33.1144 22.8647 34.796 21.6429C40.5154 17.4876 37.576 8.4411 30.5065 8.4411C28.4279 8.4411 26.5858 7.10271 25.9435 5.12591ZM14.4399 5.89845C15.8761 1.47819 22.1296 1.47819 23.5659 5.89845C24.5428 8.90531 27.3449 10.9411 30.5065 10.9411C35.1542 10.9411 37.0866 16.8885 33.3265 19.6204C30.7688 21.4787 29.6985 24.7727 30.6755 27.7796C32.1117 32.1998 27.0525 35.8755 23.2924 33.1437C20.7346 31.2853 17.2711 31.2853 14.7133 33.1437C10.9532 35.8755 5.89406 32.1998 7.33029 27.7796C8.30728 24.7727 7.237 21.4787 4.67921 19.6204C0.919113 16.8885 2.85155 10.9411 7.49929 10.9411C10.6609 10.9411 13.4629 8.90531 14.4399 5.89845Z" fill="#32A181"/>
</svg>
