<svg width="36" height="38" viewBox="0 0 36 38" fill="none" xmlns="http://www.w3.org/2000/svg">
<path d="M7.95014 3.05938C8.48922 2.62812 8.57662 1.84151 8.14536 1.30243C7.7141 0.763352 6.92748 0.67595 6.3884 1.10721L2.22174 4.44055C1.68266 4.87181 1.59526 5.65842 2.02652 6.1975C2.45778 6.73658 3.2444 6.82398 3.78347 6.39272L7.95014 3.05938Z" fill="#32A181"/>
<path d="M29.6168 1.10721C29.0777 0.67595 28.2911 0.763352 27.8599 1.30243C27.4286 1.84151 27.516 2.62812 28.0551 3.05938L32.2217 6.39272C32.7608 6.82398 33.5474 6.73658 33.9787 6.1975C34.41 5.65842 34.3226 4.87181 33.7835 4.44055L29.6168 1.10721Z" fill="#32A181"/>
<path d="M19.2526 11.6666C19.2526 10.9763 18.693 10.4166 18.0026 10.4166C17.3123 10.4166 16.7526 10.9763 16.7526 11.6666V20C16.7528 21.1881 18.1893 21.7832 19.0295 20.9431L22.4221 17.5505C22.9102 17.0624 22.9102 16.2709 22.4221 15.7828C21.9339 15.2946 21.1424 15.2946 20.6543 15.7828L19.2526 17.1844V11.6666Z" fill="#32A181"/>
<path fill-rule="evenodd" clip-rule="evenodd" d="M18.0026 2.0833C8.1075 2.0833 0.0859375 10.1049 0.0859375 20C0.0859375 29.8951 8.1075 37.9166 18.0026 37.9166C27.8977 37.9166 35.9193 29.8951 35.9193 20C35.9193 10.1049 27.8977 2.0833 18.0026 2.0833ZM2.58594 20C2.58594 11.4856 9.48821 4.5833 18.0026 4.5833C26.517 4.5833 33.4193 11.4856 33.4193 20C33.4193 28.5144 26.517 35.4166 18.0026 35.4166C9.48821 35.4166 2.58594 28.5144 2.58594 20Z" fill="#32A181"/>
</svg>
